<mxfile host="app.diagrams.net" modified="2021-11-21T23:10:30.361Z" agent="5.0 (X11)" etag="eZxLGRirRX9TL75jmUVj" version="15.8.3" type="github">
  <diagram id="-mv96MuUZDFVR_b4qBt2" name="Page-1">
    <mxGraphModel dx="981" dy="491" grid="1" gridSize="10" guides="1" tooltips="1" connect="1" arrows="1" fold="1" page="1" pageScale="1" pageWidth="850" pageHeight="1100" math="0" shadow="0">
      <root>
        <mxCell id="0" />
        <mxCell id="1" parent="0" />
        <mxCell id="4DjQRC45-hN4CjY0wCKL-121" value="" style="rounded=0;whiteSpace=wrap;html=1;fontSize=11;dashed=1;" parent="1" vertex="1">
          <mxGeometry x="30" y="910" width="570" height="130" as="geometry" />
        </mxCell>
        <mxCell id="4DjQRC45-hN4CjY0wCKL-70" value="" style="endArrow=none;html=1;rounded=0;fontSize=12;exitX=1;exitY=0.5;exitDx=0;exitDy=0;entryX=0;entryY=0.5;entryDx=0;entryDy=0;" parent="1" source="4DjQRC45-hN4CjY0wCKL-3" target="4DjQRC45-hN4CjY0wCKL-69" edge="1">
          <mxGeometry relative="1" as="geometry">
            <mxPoint x="240" y="460" as="sourcePoint" />
            <mxPoint x="480" y="460" as="targetPoint" />
          </mxGeometry>
        </mxCell>
        <mxCell id="4DjQRC45-hN4CjY0wCKL-71" value="M" style="resizable=0;html=1;align=left;verticalAlign=bottom;fontSize=12;" parent="4DjQRC45-hN4CjY0wCKL-70" connectable="0" vertex="1">
          <mxGeometry x="-1" relative="1" as="geometry" />
        </mxCell>
        <mxCell id="4DjQRC45-hN4CjY0wCKL-23" value="" style="endArrow=none;html=1;rounded=0;fontSize=12;exitX=1;exitY=0.5;exitDx=0;exitDy=0;entryX=0;entryY=0.5;entryDx=0;entryDy=0;startArrow=none;" parent="1" source="4DjQRC45-hN4CjY0wCKL-69" target="4DjQRC45-hN4CjY0wCKL-4" edge="1">
          <mxGeometry relative="1" as="geometry">
            <mxPoint x="270" y="459.5" as="sourcePoint" />
            <mxPoint x="430" y="459.5" as="targetPoint" />
          </mxGeometry>
        </mxCell>
        <mxCell id="4DjQRC45-hN4CjY0wCKL-25" value="N" style="resizable=0;html=1;align=right;verticalAlign=bottom;fontSize=12;" parent="4DjQRC45-hN4CjY0wCKL-23" connectable="0" vertex="1">
          <mxGeometry x="1" relative="1" as="geometry" />
        </mxCell>
        <mxCell id="4DjQRC45-hN4CjY0wCKL-2" value="&lt;font style=&quot;font-size: 26px&quot;&gt;1.6.&lt;/font&gt;&lt;br&gt;&lt;div&gt;&lt;font style=&quot;font-size: 16px&quot;&gt;&lt;br&gt;&lt;/font&gt;&lt;/div&gt;&lt;div&gt;&lt;font style=&quot;font-size: 16px&quot;&gt;(a) Una empresa contrata programadores y al momento del ingreso, éstos deben&lt;/font&gt;&lt;/div&gt;&lt;font style=&quot;font-size: 16px&quot;&gt;explicitar qué lenguajes de programación conocen. En ese mismo momento la&lt;br&gt;empresa le toma un examen a cada programador para cada lenguaje de pro-&lt;br&gt;gramación que conozca. Es necesario, además, llevar registro de la calificación&lt;br&gt;obtenida. Para evaluar a los entrevistados, la empresa cuenta con exámenes&lt;br&gt;estándar preparados, de los que se conoce la cantidad de ejercicios, el nivel de&lt;br&gt;&lt;/font&gt;&lt;div&gt;&lt;font style=&quot;font-size: 16px&quot;&gt;dificultad, la fecha de creación y el texto del examen.&lt;br&gt;&lt;/font&gt;&lt;/div&gt;&lt;div&gt;&lt;br&gt;&lt;/div&gt;&lt;div&gt;&lt;br&gt;&lt;/div&gt;&lt;font style=&quot;font-size: 16px&quot;&gt;(b) ¿Cómo modificaría el modelo conceptual del punto (a) si el examen se le tomara&lt;br&gt;sólo a algunos de los programadores (tener en cuenta que sigue siendo de interés&lt;br&gt;registrar los lenguajes conocidos por cada entrevistado)?&lt;/font&gt;" style="text;whiteSpace=wrap;html=1;" parent="1" vertex="1">
          <mxGeometry width="780" height="320" as="geometry" />
        </mxCell>
        <mxCell id="4DjQRC45-hN4CjY0wCKL-32" style="edgeStyle=orthogonalEdgeStyle;rounded=0;orthogonalLoop=1;jettySize=auto;html=1;exitX=0.5;exitY=1;exitDx=0;exitDy=0;fontSize=12;endArrow=none;endFill=0;entryX=0;entryY=0.5;entryDx=0;entryDy=0;" parent="1" source="4DjQRC45-hN4CjY0wCKL-3" target="4DjQRC45-hN4CjY0wCKL-27" edge="1">
          <mxGeometry relative="1" as="geometry">
            <mxPoint x="200" y="580" as="targetPoint" />
          </mxGeometry>
        </mxCell>
        <mxCell id="4DjQRC45-hN4CjY0wCKL-3" value="&lt;font style=&quot;font-size: 12px&quot;&gt;Programador&lt;/font&gt;" style="whiteSpace=wrap;html=1;fontSize=16;" parent="1" vertex="1">
          <mxGeometry x="160" y="440" width="80" height="40" as="geometry" />
        </mxCell>
        <mxCell id="4DjQRC45-hN4CjY0wCKL-4" value="&lt;font style=&quot;font-size: 12px&quot;&gt;Lenguaje de programación&lt;br&gt;&lt;/font&gt;" style="whiteSpace=wrap;html=1;fontSize=16;" parent="1" vertex="1">
          <mxGeometry x="480" y="440" width="80" height="40" as="geometry" />
        </mxCell>
        <mxCell id="4DjQRC45-hN4CjY0wCKL-31" style="edgeStyle=orthogonalEdgeStyle;rounded=0;orthogonalLoop=1;jettySize=auto;html=1;exitX=1;exitY=0.5;exitDx=0;exitDy=0;entryX=0.5;entryY=1;entryDx=0;entryDy=0;fontSize=12;endArrow=none;endFill=0;" parent="1" source="4DjQRC45-hN4CjY0wCKL-5" target="4DjQRC45-hN4CjY0wCKL-27" edge="1">
          <mxGeometry relative="1" as="geometry" />
        </mxCell>
        <mxCell id="4DjQRC45-hN4CjY0wCKL-5" value="Examen estándar" style="whiteSpace=wrap;html=1;fontSize=16;" parent="1" vertex="1">
          <mxGeometry x="160" y="720" width="80" height="40" as="geometry" />
        </mxCell>
        <mxCell id="4DjQRC45-hN4CjY0wCKL-11" style="edgeStyle=orthogonalEdgeStyle;rounded=0;orthogonalLoop=1;jettySize=auto;html=1;exitX=1;exitY=0.5;exitDx=0;exitDy=0;entryX=0.25;entryY=0;entryDx=0;entryDy=0;fontSize=12;endArrow=none;endFill=0;" parent="1" source="4DjQRC45-hN4CjY0wCKL-6" target="4DjQRC45-hN4CjY0wCKL-5" edge="1">
          <mxGeometry relative="1" as="geometry" />
        </mxCell>
        <mxCell id="4DjQRC45-hN4CjY0wCKL-6" value="Cantidad de ejercicios" style="ellipse;whiteSpace=wrap;html=1;align=center;fontSize=12;" parent="1" vertex="1">
          <mxGeometry x="40" y="680" width="80" height="40" as="geometry" />
        </mxCell>
        <mxCell id="4DjQRC45-hN4CjY0wCKL-13" style="edgeStyle=orthogonalEdgeStyle;rounded=0;orthogonalLoop=1;jettySize=auto;html=1;exitX=1;exitY=0.5;exitDx=0;exitDy=0;entryX=0.5;entryY=1;entryDx=0;entryDy=0;fontSize=12;endArrow=none;endFill=0;" parent="1" source="4DjQRC45-hN4CjY0wCKL-7" target="4DjQRC45-hN4CjY0wCKL-5" edge="1">
          <mxGeometry relative="1" as="geometry" />
        </mxCell>
        <mxCell id="4DjQRC45-hN4CjY0wCKL-7" value="Dificultad" style="ellipse;whiteSpace=wrap;html=1;align=center;fontSize=12;" parent="1" vertex="1">
          <mxGeometry x="40" y="760" width="80" height="40" as="geometry" />
        </mxCell>
        <mxCell id="4DjQRC45-hN4CjY0wCKL-10" style="edgeStyle=orthogonalEdgeStyle;rounded=0;orthogonalLoop=1;jettySize=auto;html=1;exitX=1;exitY=0.5;exitDx=0;exitDy=0;fontSize=12;endArrow=none;endFill=0;" parent="1" source="4DjQRC45-hN4CjY0wCKL-8" target="4DjQRC45-hN4CjY0wCKL-5" edge="1">
          <mxGeometry relative="1" as="geometry" />
        </mxCell>
        <mxCell id="4DjQRC45-hN4CjY0wCKL-8" value="Fecha de creaciòn" style="ellipse;whiteSpace=wrap;html=1;align=center;fontSize=12;" parent="1" vertex="1">
          <mxGeometry x="40" y="640" width="80" height="40" as="geometry" />
        </mxCell>
        <mxCell id="4DjQRC45-hN4CjY0wCKL-12" style="edgeStyle=orthogonalEdgeStyle;rounded=0;orthogonalLoop=1;jettySize=auto;html=1;exitX=1;exitY=0.5;exitDx=0;exitDy=0;fontSize=12;endArrow=none;endFill=0;" parent="1" source="4DjQRC45-hN4CjY0wCKL-9" target="4DjQRC45-hN4CjY0wCKL-5" edge="1">
          <mxGeometry relative="1" as="geometry" />
        </mxCell>
        <mxCell id="4DjQRC45-hN4CjY0wCKL-9" value="Texto" style="ellipse;whiteSpace=wrap;html=1;align=center;fontSize=12;" parent="1" vertex="1">
          <mxGeometry x="40" y="720" width="80" height="40" as="geometry" />
        </mxCell>
        <mxCell id="4DjQRC45-hN4CjY0wCKL-18" style="edgeStyle=orthogonalEdgeStyle;rounded=0;orthogonalLoop=1;jettySize=auto;html=1;exitX=1;exitY=0.5;exitDx=0;exitDy=0;entryX=0.5;entryY=0;entryDx=0;entryDy=0;fontSize=12;endArrow=none;endFill=0;" parent="1" source="4DjQRC45-hN4CjY0wCKL-15" target="4DjQRC45-hN4CjY0wCKL-3" edge="1">
          <mxGeometry relative="1" as="geometry" />
        </mxCell>
        <mxCell id="4DjQRC45-hN4CjY0wCKL-15" value="&lt;u&gt;IdEmpleado&lt;/u&gt;" style="ellipse;whiteSpace=wrap;html=1;align=center;fontSize=12;" parent="1" vertex="1">
          <mxGeometry x="40" y="400" width="80" height="40" as="geometry" />
        </mxCell>
        <mxCell id="4DjQRC45-hN4CjY0wCKL-19" style="edgeStyle=orthogonalEdgeStyle;rounded=0;orthogonalLoop=1;jettySize=auto;html=1;exitX=1;exitY=0.5;exitDx=0;exitDy=0;fontSize=12;endArrow=none;endFill=0;" parent="1" source="4DjQRC45-hN4CjY0wCKL-16" target="4DjQRC45-hN4CjY0wCKL-3" edge="1">
          <mxGeometry relative="1" as="geometry" />
        </mxCell>
        <mxCell id="4DjQRC45-hN4CjY0wCKL-16" value="Nombre" style="ellipse;whiteSpace=wrap;html=1;align=center;fontSize=12;" parent="1" vertex="1">
          <mxGeometry x="40" y="440" width="80" height="40" as="geometry" />
        </mxCell>
        <mxCell id="4DjQRC45-hN4CjY0wCKL-21" style="edgeStyle=orthogonalEdgeStyle;rounded=0;orthogonalLoop=1;jettySize=auto;html=1;exitX=0.5;exitY=1;exitDx=0;exitDy=0;fontSize=12;endArrow=none;endFill=0;" parent="1" source="4DjQRC45-hN4CjY0wCKL-20" target="4DjQRC45-hN4CjY0wCKL-4" edge="1">
          <mxGeometry relative="1" as="geometry" />
        </mxCell>
        <mxCell id="4DjQRC45-hN4CjY0wCKL-20" value="&lt;u&gt;Nombre&lt;/u&gt;" style="ellipse;whiteSpace=wrap;html=1;align=center;fontSize=12;" parent="1" vertex="1">
          <mxGeometry x="480" y="370" width="80" height="40" as="geometry" />
        </mxCell>
        <mxCell id="4DjQRC45-hN4CjY0wCKL-22" value="Conoce" style="shape=rhombus;perimeter=rhombusPerimeter;whiteSpace=wrap;html=1;align=center;fontSize=12;" parent="1" vertex="1">
          <mxGeometry x="320" y="440" width="80" height="40" as="geometry" />
        </mxCell>
        <mxCell id="4DjQRC45-hN4CjY0wCKL-33" style="edgeStyle=orthogonalEdgeStyle;rounded=0;orthogonalLoop=1;jettySize=auto;html=1;exitX=1;exitY=0.5;exitDx=0;exitDy=0;entryX=0.5;entryY=1;entryDx=0;entryDy=0;fontSize=12;endArrow=none;endFill=0;startArrow=none;" parent="1" source="4DjQRC45-hN4CjY0wCKL-66" target="4DjQRC45-hN4CjY0wCKL-4" edge="1">
          <mxGeometry relative="1" as="geometry" />
        </mxCell>
        <mxCell id="4DjQRC45-hN4CjY0wCKL-76" style="edgeStyle=orthogonalEdgeStyle;rounded=0;orthogonalLoop=1;jettySize=auto;html=1;exitX=1;exitY=1;exitDx=0;exitDy=0;fontSize=12;endArrow=none;endFill=0;" parent="1" source="4DjQRC45-hN4CjY0wCKL-27" edge="1">
          <mxGeometry relative="1" as="geometry">
            <mxPoint x="520" y="640" as="targetPoint" />
          </mxGeometry>
        </mxCell>
        <mxCell id="4DjQRC45-hN4CjY0wCKL-27" value="Rinde" style="shape=rhombus;perimeter=rhombusPerimeter;whiteSpace=wrap;html=1;align=center;fontSize=12;" parent="1" vertex="1">
          <mxGeometry x="320" y="560" width="80" height="40" as="geometry" />
        </mxCell>
        <mxCell id="4DjQRC45-hN4CjY0wCKL-34" value="&lt;font style=&quot;font-size: 16px&quot;&gt;1&lt;/font&gt;" style="text;html=1;align=center;verticalAlign=middle;resizable=0;points=[];autosize=1;strokeColor=none;fillColor=none;fontSize=12;" parent="1" vertex="1">
          <mxGeometry x="260" y="720" width="20" height="20" as="geometry" />
        </mxCell>
        <mxCell id="4DjQRC45-hN4CjY0wCKL-35" value="N" style="text;html=1;align=center;verticalAlign=middle;resizable=0;points=[];autosize=1;strokeColor=none;fillColor=none;fontSize=12;" parent="1" vertex="1">
          <mxGeometry x="200" y="490" width="20" height="20" as="geometry" />
        </mxCell>
        <mxCell id="4DjQRC45-hN4CjY0wCKL-36" value="&lt;font style=&quot;font-size: 16px&quot;&gt;1&lt;/font&gt;" style="text;html=1;align=center;verticalAlign=middle;resizable=0;points=[];autosize=1;strokeColor=none;fillColor=none;fontSize=12;" parent="1" vertex="1">
          <mxGeometry x="490" y="490" width="20" height="20" as="geometry" />
        </mxCell>
        <mxCell id="4DjQRC45-hN4CjY0wCKL-66" value="" style="ellipse;whiteSpace=wrap;html=1;fontSize=16;" parent="1" vertex="1">
          <mxGeometry x="510" y="490" width="20" height="20" as="geometry" />
        </mxCell>
        <mxCell id="4DjQRC45-hN4CjY0wCKL-68" value="" style="edgeStyle=orthogonalEdgeStyle;rounded=0;orthogonalLoop=1;jettySize=auto;html=1;exitX=1;exitY=0.5;exitDx=0;exitDy=0;entryX=0.5;entryY=1;entryDx=0;entryDy=0;fontSize=12;endArrow=none;endFill=0;" parent="1" source="4DjQRC45-hN4CjY0wCKL-27" target="4DjQRC45-hN4CjY0wCKL-66" edge="1">
          <mxGeometry relative="1" as="geometry">
            <mxPoint x="400" y="580" as="sourcePoint" />
            <mxPoint x="520" y="480" as="targetPoint" />
          </mxGeometry>
        </mxCell>
        <mxCell id="4DjQRC45-hN4CjY0wCKL-69" value="" style="ellipse;whiteSpace=wrap;html=1;fontSize=16;" parent="1" vertex="1">
          <mxGeometry x="450" y="450" width="20" height="20" as="geometry" />
        </mxCell>
        <mxCell id="4DjQRC45-hN4CjY0wCKL-73" style="edgeStyle=orthogonalEdgeStyle;rounded=0;orthogonalLoop=1;jettySize=auto;html=1;exitX=1;exitY=0.5;exitDx=0;exitDy=0;fontSize=12;endArrow=none;endFill=0;" parent="1" source="4DjQRC45-hN4CjY0wCKL-74" edge="1">
          <mxGeometry relative="1" as="geometry">
            <mxPoint x="200" y="780" as="targetPoint" />
          </mxGeometry>
        </mxCell>
        <mxCell id="4DjQRC45-hN4CjY0wCKL-74" value="&lt;u&gt;IdExamen&lt;/u&gt;" style="ellipse;whiteSpace=wrap;html=1;align=center;fontSize=12;" parent="1" vertex="1">
          <mxGeometry x="40" y="800" width="80" height="40" as="geometry" />
        </mxCell>
        <mxCell id="4DjQRC45-hN4CjY0wCKL-79" value="Calificación" style="ellipse;whiteSpace=wrap;html=1;fontSize=12;" parent="1" vertex="1">
          <mxGeometry x="475" y="640" width="90" height="45" as="geometry" />
        </mxCell>
        <mxCell id="4DjQRC45-hN4CjY0wCKL-82" value="" style="ellipse;whiteSpace=wrap;html=1;fontSize=16;" parent="1" vertex="1">
          <mxGeometry x="240" y="730" width="20" height="20" as="geometry" />
        </mxCell>
        <mxCell id="4DjQRC45-hN4CjY0wCKL-84" value="" style="endArrow=none;html=1;rounded=0;fontSize=12;exitX=1;exitY=0.5;exitDx=0;exitDy=0;entryX=0;entryY=0.5;entryDx=0;entryDy=0;" parent="1" source="4DjQRC45-hN4CjY0wCKL-89" target="4DjQRC45-hN4CjY0wCKL-116" edge="1">
          <mxGeometry relative="1" as="geometry">
            <mxPoint x="240" y="1010" as="sourcePoint" />
            <mxPoint x="480" y="1010" as="targetPoint" />
          </mxGeometry>
        </mxCell>
        <mxCell id="4DjQRC45-hN4CjY0wCKL-85" value="M" style="resizable=0;html=1;align=left;verticalAlign=bottom;fontSize=12;" parent="4DjQRC45-hN4CjY0wCKL-84" connectable="0" vertex="1">
          <mxGeometry x="-1" relative="1" as="geometry" />
        </mxCell>
        <mxCell id="4DjQRC45-hN4CjY0wCKL-86" value="" style="endArrow=none;html=1;rounded=0;fontSize=12;exitX=1;exitY=0.5;exitDx=0;exitDy=0;entryX=0;entryY=0.5;entryDx=0;entryDy=0;startArrow=none;" parent="1" source="4DjQRC45-hN4CjY0wCKL-116" target="4DjQRC45-hN4CjY0wCKL-90" edge="1">
          <mxGeometry relative="1" as="geometry">
            <mxPoint x="270" y="1009.5" as="sourcePoint" />
            <mxPoint x="430" y="1009.5" as="targetPoint" />
          </mxGeometry>
        </mxCell>
        <mxCell id="4DjQRC45-hN4CjY0wCKL-87" value="N" style="resizable=0;html=1;align=right;verticalAlign=bottom;fontSize=12;" parent="4DjQRC45-hN4CjY0wCKL-86" connectable="0" vertex="1">
          <mxGeometry x="1" relative="1" as="geometry">
            <mxPoint as="offset" />
          </mxGeometry>
        </mxCell>
        <mxCell id="4DjQRC45-hN4CjY0wCKL-89" value="&lt;font style=&quot;font-size: 12px&quot;&gt;Programador&lt;/font&gt;" style="whiteSpace=wrap;html=1;fontSize=16;" parent="1" vertex="1">
          <mxGeometry x="160" y="990" width="80" height="40" as="geometry" />
        </mxCell>
        <mxCell id="4DjQRC45-hN4CjY0wCKL-90" value="&lt;font style=&quot;font-size: 12px&quot;&gt;Lenguaje de programación&lt;br&gt;&lt;/font&gt;" style="whiteSpace=wrap;html=1;fontSize=16;" parent="1" vertex="1">
          <mxGeometry x="490" y="990" width="80" height="40" as="geometry" />
        </mxCell>
        <mxCell id="4DjQRC45-hN4CjY0wCKL-128" style="edgeStyle=orthogonalEdgeStyle;rounded=0;orthogonalLoop=1;jettySize=auto;html=1;exitX=1;exitY=0.5;exitDx=0;exitDy=0;entryX=0.5;entryY=1;entryDx=0;entryDy=0;fontSize=11;endArrow=none;endFill=0;" parent="1" source="4DjQRC45-hN4CjY0wCKL-92" target="4DjQRC45-hN4CjY0wCKL-127" edge="1">
          <mxGeometry relative="1" as="geometry" />
        </mxCell>
        <mxCell id="4DjQRC45-hN4CjY0wCKL-92" value="Examen estándar" style="whiteSpace=wrap;html=1;fontSize=16;" parent="1" vertex="1">
          <mxGeometry x="170" y="1225" width="80" height="40" as="geometry" />
        </mxCell>
        <mxCell id="4DjQRC45-hN4CjY0wCKL-93" style="edgeStyle=orthogonalEdgeStyle;rounded=0;orthogonalLoop=1;jettySize=auto;html=1;exitX=1;exitY=0.5;exitDx=0;exitDy=0;entryX=0.25;entryY=0;entryDx=0;entryDy=0;fontSize=12;endArrow=none;endFill=0;" parent="1" source="4DjQRC45-hN4CjY0wCKL-94" target="4DjQRC45-hN4CjY0wCKL-92" edge="1">
          <mxGeometry relative="1" as="geometry" />
        </mxCell>
        <mxCell id="4DjQRC45-hN4CjY0wCKL-94" value="Cantidad de ejercicios" style="ellipse;whiteSpace=wrap;html=1;align=center;fontSize=12;" parent="1" vertex="1">
          <mxGeometry x="50" y="1185" width="80" height="40" as="geometry" />
        </mxCell>
        <mxCell id="4DjQRC45-hN4CjY0wCKL-95" style="edgeStyle=orthogonalEdgeStyle;rounded=0;orthogonalLoop=1;jettySize=auto;html=1;exitX=1;exitY=0.5;exitDx=0;exitDy=0;entryX=0.5;entryY=1;entryDx=0;entryDy=0;fontSize=12;endArrow=none;endFill=0;" parent="1" source="4DjQRC45-hN4CjY0wCKL-96" target="4DjQRC45-hN4CjY0wCKL-92" edge="1">
          <mxGeometry relative="1" as="geometry" />
        </mxCell>
        <mxCell id="4DjQRC45-hN4CjY0wCKL-96" value="Dificultad" style="ellipse;whiteSpace=wrap;html=1;align=center;fontSize=12;" parent="1" vertex="1">
          <mxGeometry x="50" y="1265" width="80" height="40" as="geometry" />
        </mxCell>
        <mxCell id="4DjQRC45-hN4CjY0wCKL-97" style="edgeStyle=orthogonalEdgeStyle;rounded=0;orthogonalLoop=1;jettySize=auto;html=1;exitX=1;exitY=0.5;exitDx=0;exitDy=0;fontSize=12;endArrow=none;endFill=0;" parent="1" source="4DjQRC45-hN4CjY0wCKL-98" target="4DjQRC45-hN4CjY0wCKL-92" edge="1">
          <mxGeometry relative="1" as="geometry" />
        </mxCell>
        <mxCell id="4DjQRC45-hN4CjY0wCKL-98" value="Fecha de creaciòn" style="ellipse;whiteSpace=wrap;html=1;align=center;fontSize=12;" parent="1" vertex="1">
          <mxGeometry x="50" y="1145" width="80" height="40" as="geometry" />
        </mxCell>
        <mxCell id="4DjQRC45-hN4CjY0wCKL-99" style="edgeStyle=orthogonalEdgeStyle;rounded=0;orthogonalLoop=1;jettySize=auto;html=1;exitX=1;exitY=0.5;exitDx=0;exitDy=0;fontSize=12;endArrow=none;endFill=0;" parent="1" source="4DjQRC45-hN4CjY0wCKL-100" target="4DjQRC45-hN4CjY0wCKL-92" edge="1">
          <mxGeometry relative="1" as="geometry" />
        </mxCell>
        <mxCell id="4DjQRC45-hN4CjY0wCKL-100" value="Texto" style="ellipse;whiteSpace=wrap;html=1;align=center;fontSize=12;" parent="1" vertex="1">
          <mxGeometry x="50" y="1225" width="80" height="40" as="geometry" />
        </mxCell>
        <mxCell id="4DjQRC45-hN4CjY0wCKL-101" style="edgeStyle=orthogonalEdgeStyle;rounded=0;orthogonalLoop=1;jettySize=auto;html=1;exitX=1;exitY=0.5;exitDx=0;exitDy=0;entryX=0.5;entryY=0;entryDx=0;entryDy=0;fontSize=12;endArrow=none;endFill=0;" parent="1" source="4DjQRC45-hN4CjY0wCKL-102" target="4DjQRC45-hN4CjY0wCKL-89" edge="1">
          <mxGeometry relative="1" as="geometry" />
        </mxCell>
        <mxCell id="4DjQRC45-hN4CjY0wCKL-102" value="&lt;u&gt;IdEmpleado&lt;/u&gt;" style="ellipse;whiteSpace=wrap;html=1;align=center;fontSize=12;" parent="1" vertex="1">
          <mxGeometry x="40" y="950" width="80" height="40" as="geometry" />
        </mxCell>
        <mxCell id="4DjQRC45-hN4CjY0wCKL-103" style="edgeStyle=orthogonalEdgeStyle;rounded=0;orthogonalLoop=1;jettySize=auto;html=1;exitX=1;exitY=0.5;exitDx=0;exitDy=0;fontSize=12;endArrow=none;endFill=0;" parent="1" source="4DjQRC45-hN4CjY0wCKL-104" target="4DjQRC45-hN4CjY0wCKL-89" edge="1">
          <mxGeometry relative="1" as="geometry" />
        </mxCell>
        <mxCell id="4DjQRC45-hN4CjY0wCKL-104" value="Nombre" style="ellipse;whiteSpace=wrap;html=1;align=center;fontSize=12;" parent="1" vertex="1">
          <mxGeometry x="40" y="990" width="80" height="40" as="geometry" />
        </mxCell>
        <mxCell id="4DjQRC45-hN4CjY0wCKL-105" style="edgeStyle=orthogonalEdgeStyle;rounded=0;orthogonalLoop=1;jettySize=auto;html=1;exitX=0.5;exitY=1;exitDx=0;exitDy=0;fontSize=12;endArrow=none;endFill=0;" parent="1" source="4DjQRC45-hN4CjY0wCKL-106" target="4DjQRC45-hN4CjY0wCKL-90" edge="1">
          <mxGeometry relative="1" as="geometry" />
        </mxCell>
        <mxCell id="4DjQRC45-hN4CjY0wCKL-106" value="&lt;u&gt;Nombre&lt;/u&gt;" style="ellipse;whiteSpace=wrap;html=1;align=center;fontSize=12;" parent="1" vertex="1">
          <mxGeometry x="490" y="920" width="80" height="40" as="geometry" />
        </mxCell>
        <mxCell id="4DjQRC45-hN4CjY0wCKL-107" value="Conoce" style="shape=rhombus;perimeter=rhombusPerimeter;whiteSpace=wrap;html=1;align=center;fontSize=12;" parent="1" vertex="1">
          <mxGeometry x="320" y="990" width="80" height="40" as="geometry" />
        </mxCell>
        <mxCell id="4DjQRC45-hN4CjY0wCKL-116" value="" style="ellipse;whiteSpace=wrap;html=1;fontSize=16;" parent="1" vertex="1">
          <mxGeometry x="450" y="1000" width="20" height="20" as="geometry" />
        </mxCell>
        <mxCell id="4DjQRC45-hN4CjY0wCKL-117" style="edgeStyle=orthogonalEdgeStyle;rounded=0;orthogonalLoop=1;jettySize=auto;html=1;exitX=1;exitY=0.5;exitDx=0;exitDy=0;fontSize=12;endArrow=none;endFill=0;" parent="1" source="4DjQRC45-hN4CjY0wCKL-118" edge="1">
          <mxGeometry relative="1" as="geometry">
            <mxPoint x="210" y="1285" as="targetPoint" />
          </mxGeometry>
        </mxCell>
        <mxCell id="4DjQRC45-hN4CjY0wCKL-118" value="&lt;u&gt;IdExamen&lt;/u&gt;" style="ellipse;whiteSpace=wrap;html=1;align=center;fontSize=12;" parent="1" vertex="1">
          <mxGeometry x="50" y="1305" width="80" height="40" as="geometry" />
        </mxCell>
        <mxCell id="4DjQRC45-hN4CjY0wCKL-131" style="edgeStyle=orthogonalEdgeStyle;rounded=0;orthogonalLoop=1;jettySize=auto;html=1;exitX=0.5;exitY=0;exitDx=0;exitDy=0;entryX=0.579;entryY=1.004;entryDx=0;entryDy=0;entryPerimeter=0;fontSize=11;endArrow=none;endFill=0;" parent="1" source="4DjQRC45-hN4CjY0wCKL-127" target="4DjQRC45-hN4CjY0wCKL-121" edge="1">
          <mxGeometry relative="1" as="geometry" />
        </mxCell>
        <mxCell id="4DjQRC45-hN4CjY0wCKL-138" style="edgeStyle=orthogonalEdgeStyle;rounded=0;orthogonalLoop=1;jettySize=auto;html=1;fontSize=11;endArrow=none;endFill=0;entryX=0;entryY=0.556;entryDx=0;entryDy=0;entryPerimeter=0;" parent="1" source="4DjQRC45-hN4CjY0wCKL-127" target="4DjQRC45-hN4CjY0wCKL-137" edge="1">
          <mxGeometry relative="1" as="geometry">
            <mxPoint x="470" y="1135" as="targetPoint" />
          </mxGeometry>
        </mxCell>
        <mxCell id="4DjQRC45-hN4CjY0wCKL-127" value="Evaluado" style="shape=rhombus;perimeter=rhombusPerimeter;whiteSpace=wrap;html=1;align=center;fontSize=12;" parent="1" vertex="1">
          <mxGeometry x="320" y="1115" width="80" height="40" as="geometry" />
        </mxCell>
        <mxCell id="4DjQRC45-hN4CjY0wCKL-132" value="" style="ellipse;whiteSpace=wrap;html=1;fontSize=16;" parent="1" vertex="1">
          <mxGeometry x="250" y="1235" width="20" height="20" as="geometry" />
        </mxCell>
        <mxCell id="4DjQRC45-hN4CjY0wCKL-135" value="N" style="text;html=1;align=center;verticalAlign=middle;resizable=0;points=[];autosize=1;strokeColor=none;fillColor=none;fontSize=12;" parent="1" vertex="1">
          <mxGeometry x="360" y="1070" width="20" height="20" as="geometry" />
        </mxCell>
        <mxCell id="4DjQRC45-hN4CjY0wCKL-136" value="1" style="text;html=1;align=center;verticalAlign=middle;resizable=0;points=[];autosize=1;strokeColor=none;fillColor=none;fontSize=12;" parent="1" vertex="1">
          <mxGeometry x="280" y="1225" width="20" height="20" as="geometry" />
        </mxCell>
        <mxCell id="4DjQRC45-hN4CjY0wCKL-137" value="Calificación" style="ellipse;whiteSpace=wrap;html=1;fontSize=12;" parent="1" vertex="1">
          <mxGeometry x="480" y="1110" width="90" height="45" as="geometry" />
        </mxCell>
        <mxCell id="kQ0vporfk3wQMLra0LBh-1" value="&lt;div align=&quot;left&quot;&gt;&lt;p&gt;&lt;u&gt;Esquemas&lt;/u&gt;&lt;/p&gt;&lt;p&gt;&lt;b&gt;Programador&lt;/b&gt;(&lt;u&gt;idEmpleado&lt;/u&gt;, Nombre)&lt;/p&gt;&lt;p&gt;&lt;b&gt;Lenguaje&lt;/b&gt;(&lt;u&gt;Lenguaje&lt;/u&gt;)&lt;/p&gt;&lt;p&gt;&lt;b&gt;Examen&lt;/b&gt;(&lt;u&gt;IdExamen, &lt;/u&gt;Fecha, CantidadDeEjercicios, Texto, Dificultad)&lt;/p&gt;&lt;p&gt;&lt;b&gt;Conoce&lt;/b&gt;(&lt;span style=&quot;background-color: rgb(255 , 217 , 102)&quot;&gt;&lt;u&gt;IdEmpleado&lt;/u&gt;&lt;/span&gt;, &lt;span style=&quot;background-color: rgb(255 , 217 , 102)&quot;&gt;&lt;u&gt;Nombre&lt;/u&gt;&lt;/span&gt;, &lt;span style=&quot;background-color: rgb(255 , 217 , 102)&quot;&gt;idExamen&lt;/span&gt;, Calificación)&lt;/p&gt;&lt;/div&gt;" style="text;html=1;align=left;verticalAlign=middle;resizable=0;points=[];autosize=1;strokeColor=none;fillColor=none;" vertex="1" parent="1">
          <mxGeometry x="40" y="1345" width="370" height="150" as="geometry" />
        </mxCell>
      </root>
    </mxGraphModel>
  </diagram>
</mxfile>
